<svg xmlns="http://www.w3.org/2000/svg" xmlns:xlink="http://www.w3.org/1999/xlink" contentStyleType="text/css" data-diagram-type="DESCRIPTION" height="859px" preserveAspectRatio="none" style="width:2498px;height:859px;background:#FEFEFE;" version="1.1" viewBox="0 0 2498 859" width="2498px" zoomAndPan="magnify"><title>OBINexus Legal Infrastructure Hierarchy</title><defs/><g><rect fill="#FEFEFE" height="859" style="stroke:none;stroke-width:1;" width="2498" x="0" y="0"/><g class="title" data-source-line="2"><text fill="#FFFFFF" font-family="Verdana" font-size="22" font-weight="bold" lengthAdjust="spacing" textLength="504.6787" x="992.1606" y="35.4209">OBINexus Legal Infrastructure Hierarchy</text><text fill="#FFFFFF" font-family="Verdana" font-size="22" font-weight="bold" lengthAdjust="spacing" textLength="541.0303" x="973.9849" y="61.0303">{&lt;*&gt;,&lt;**&gt;}.&lt;-&gt;.obinexus.&lt;--&gt;.org Schema</text></g><!--cluster Constitutional Framework Layer--><g class="cluster" data-entity="Constitutional Framework Layer" data-source-line="14" data-uid="ent0003" id="cluster_Constitutional Framework Layer"><path d="M487,235.8188 L737.0713,235.8188 A7.5,7.5 0 0 1 742.0713,240.8188 L749.0713,258.1156 L1050,258.1156 A5,5 0 0 1 1055,263.1156 L1055,334.4088 A5,5 0 0 1 1050,339.4088 L487,339.4088 A5,5 0 0 1 482,334.4088 L482,240.8188 A5,5 0 0 1 487,235.8188" fill="#E6E6FA" style="stroke:#FFFFFF;stroke-width:1;"/><line style="stroke:#FFFFFF;stroke-width:1;" x1="482" x2="749.0713" y1="258.1156" y2="258.1156"/><text fill="#FFFFFF" font-family="Verdana" font-size="14" font-weight="bold" lengthAdjust="spacing" textLength="254.0713" x="486" y="250.8139">Constitutional Framework Layer</text></g><!--cluster Services Layer (*)--><g class="cluster" data-entity="Services Layer ..." data-source-line="20" data-uid="ent0006" id="cluster_Services Layer ..."><path d="M185,388.4088 L321.2939,388.4088 A7.5,7.5 0 0 1 326.2939,393.4088 L333.2939,410.7056 L1292,410.7056 A5,5 0 0 1 1297,415.7056 L1297,487.0087 A5,5 0 0 1 1292,492.0087 L185,492.0087 A5,5 0 0 1 180,487.0087 L180,393.4088 A5,5 0 0 1 185,388.4088" fill="#F0FFF0" style="stroke:#FFFFFF;stroke-width:1;"/><line style="stroke:#FFFFFF;stroke-width:1;" x1="180" x2="333.2939" y1="410.7056" y2="410.7056"/><text fill="#FFFFFF" font-family="Verdana" font-size="14" font-weight="bold" lengthAdjust="spacing" textLength="140.2939" x="184" y="403.4039">Services Layer (*)</text></g><!--cluster Operations Layer (**)--><g class="cluster" data-entity="Operations Layer ...." data-source-line="28" data-uid="ent0011" id="cluster_Operations Layer ...."><path d="M16,541.0088 L180.2598,541.0088 A7.5,7.5 0 0 1 185.2598,546.0088 L192.2598,563.3056 L1468,563.3056 A5,5 0 0 1 1473,568.3056 L1473,706.5988 A5,5 0 0 1 1468,711.5988 L16,711.5988 A5,5 0 0 1 11,706.5988 L11,546.0088 A5,5 0 0 1 16,541.0088" fill="#FFF0F5" style="stroke:#FFFFFF;stroke-width:1;"/><line style="stroke:#FFFFFF;stroke-width:1;" x1="11" x2="192.2598" y1="563.3056" y2="563.3056"/><text fill="#FFFFFF" font-family="Verdana" font-size="14" font-weight="bold" lengthAdjust="spacing" textLength="168.2598" x="15" y="556.0039">Operations Layer (**)</text></g><!--cluster HITL Operations--><g class="cluster" data-entity="HITL Operations" data-source-line="29" data-uid="ent0012" id="cluster_HITL Operations"><path d="M768,584.0088 L891.4492,584.0088 A7.5,7.5 0 0 1 896.4492,589.0088 L903.4492,606.3056 L1444,606.3056 A5,5 0 0 1 1449,611.3056 L1449,682.5988 A5,5 0 0 1 1444,687.5988 L768,687.5988 A5,5 0 0 1 763,682.5988 L763,589.0088 A5,5 0 0 1 768,584.0088" fill="#FFB6C1" style="stroke:#FFFFFF;stroke-width:1;"/><line style="stroke:#FFFFFF;stroke-width:1;" x1="763" x2="903.4492" y1="606.3056" y2="606.3056"/><text fill="#FFFFFF" font-family="Verdana" font-size="14" font-weight="bold" lengthAdjust="spacing" textLength="127.4492" x="767" y="599.0039">HITL Operations</text></g><!--cluster HOTL Operations--><g class="cluster" data-entity="HOTL Operations" data-source-line="35" data-uid="ent0016" id="cluster_HOTL Operations"><path d="M40,584.0088 L170.1416,584.0088 A7.5,7.5 0 0 1 175.1416,589.0088 L182.1416,606.3056 L734,606.3056 A5,5 0 0 1 739,611.3056 L739,682.5988 A5,5 0 0 1 734,687.5988 L40,687.5988 A5,5 0 0 1 35,682.5988 L35,589.0088 A5,5 0 0 1 40,584.0088" fill="#DDA0DD" style="stroke:#FFFFFF;stroke-width:1;"/><line style="stroke:#FFFFFF;stroke-width:1;" x1="35" x2="182.1416" y1="606.3056" y2="606.3056"/><text fill="#FFFFFF" font-family="Verdana" font-size="14" font-weight="bold" lengthAdjust="spacing" textLength="134.1416" x="39" y="599.0039">HOTL Operations</text></g><!--cluster Departments (<->)--><g class="cluster" data-entity="Departments ..-.." data-source-line="43" data-uid="ent0020" id="cluster_Departments ..-.."><path d="M1436,83.2188 L1582.1992,83.2188 A7.5,7.5 0 0 1 1587.1992,88.2188 L1594.1992,105.5156 L2151,105.5156 A5,5 0 0 1 2156,110.5156 L2156,181.8188 A5,5 0 0 1 2151,186.8188 L1436,186.8188 A5,5 0 0 1 1431,181.8188 L1431,88.2188 A5,5 0 0 1 1436,83.2188" fill="#F0FFFF" style="stroke:#FFFFFF;stroke-width:1;"/><line style="stroke:#FFFFFF;stroke-width:1;" x1="1431" x2="1594.1992" y1="105.5156" y2="105.5156"/><text fill="#FFFFFF" font-family="Verdana" font-size="14" font-weight="bold" lengthAdjust="spacing" textLength="150.1992" x="1435" y="98.2139">Departments (&lt;-&gt;)</text></g><!--cluster Legal Divisions (<- ->)--><g class="cluster" data-entity="Legal Divisions ..--.." data-source-line="50" data-uid="ent0024" id="cluster_Legal Divisions ..--.."><path d="M1410,235.8188 L1577.7051,235.8188 A7.5,7.5 0 0 1 1582.7051,240.8188 L1589.7051,258.1156 L2486,258.1156 A5,5 0 0 1 2491,263.1156 L2491,334.4088 A5,5 0 0 1 2486,339.4088 L1410,339.4088 A5,5 0 0 1 1405,334.4088 L1405,240.8188 A5,5 0 0 1 1410,235.8188" fill="#FFFACD" style="stroke:#FFFFFF;stroke-width:1;"/><line style="stroke:#FFFFFF;stroke-width:1;" x1="1405" x2="1589.7051" y1="258.1156" y2="258.1156"/><text fill="#FFFFFF" font-family="Verdana" font-size="14" font-weight="bold" lengthAdjust="spacing" textLength="171.7051" x="1409" y="250.8139">Legal Divisions (&lt;--&gt;)</text></g><!--cluster Hybrid Entities--><g class="cluster" data-entity="Hybrid Entities" data-source-line="58" data-uid="ent0029" id="cluster_Hybrid Entities"><path d="M937,83.2188 L1050.8037,83.2188 A7.5,7.5 0 0 1 1055.8037,88.2188 L1062.8037,105.5156 L1402,105.5156 A5,5 0 0 1 1407,110.5156 L1407,181.8188 A5,5 0 0 1 1402,186.8188 L937,186.8188 A5,5 0 0 1 932,181.8188 L932,88.2188 A5,5 0 0 1 937,83.2188" fill="#FFE4E1" style="stroke:#FFFFFF;stroke-width:1;"/><line style="stroke:#FFFFFF;stroke-width:1;" x1="932" x2="1062.8037" y1="105.5156" y2="105.5156"/><text fill="#FFFFFF" font-family="Verdana" font-size="14" font-weight="bold" lengthAdjust="spacing" textLength="117.8037" x="936" y="98.2139">Hybrid Entities</text></g><!--cluster Legal Sectors--><g class="cluster" data-entity="Legal Sectors" data-source-line="64" data-uid="ent0032" id="cluster_Legal Sectors"><path d="M1749,388.4088 L1851.9824,388.4088 A7.5,7.5 0 0 1 1856.9824,393.4088 L1863.9824,410.7056 L2270,410.7056 A5,5 0 0 1 2275,415.7056 L2275,487.0087 A5,5 0 0 1 2270,492.0087 L1749,492.0087 A5,5 0 0 1 1744,487.0087 L1744,393.4088 A5,5 0 0 1 1749,388.4088" fill="#E0FFFF" style="stroke:#FFFFFF;stroke-width:1;"/><line style="stroke:#FFFFFF;stroke-width:1;" x1="1744" x2="1863.9824" y1="410.7056" y2="410.7056"/><text fill="#FFFFFF" font-family="Verdana" font-size="14" font-weight="bold" lengthAdjust="spacing" textLength="106.9824" x="1748" y="403.4039">Legal Sectors</text></g><!--entity ROOT--><g class="entity" data-entity="ROOT" data-source-line="10" data-uid="ent0002" id="entity_ROOT"><rect fill="#FFD700" height="52.5938" rx="5" ry="5" style="stroke:#FFFFFF;stroke-width:1;" width="260.3105" x="608.84" y="118.2188"/><text fill="#FFFFFF" font-family="Verdana" font-size="14" font-weight="bold" lengthAdjust="spacing" textLength="146.9727" x="618.84" y="141.2139">obinexus.legal.org</text><text fill="#FFFFFF" font-family="Verdana" font-size="14" lengthAdjust="spacing" textLength="240.3105" x="618.84" y="157.5107">Constitutional Legal Infrastructure</text></g><!--entity CCE--><g class="entity" data-entity="CCE" data-source-line="15" data-uid="ent0004" id="entity_CCE"><rect fill="#B0C4DE" height="52.5938" rx="5" ry="5" style="stroke:#FFFFFF;stroke-width:1;" width="286.5332" x="752.73" y="270.8188"/><text fill="#FFFFFF" font-family="Verdana" font-size="14" font-weight="bold" lengthAdjust="spacing" textLength="266.5332" x="762.73" y="293.8139">Constitutional Compliance Engine</text><text fill="#FFFFFF" font-family="Verdana" font-size="14" lengthAdjust="spacing" textLength="219.4336" x="762.73" y="310.1107">Machine-Verifiable Governance</text></g><!--entity LAA--><g class="entity" data-entity="LAA" data-source-line="16" data-uid="ent0005" id="entity_LAA"><rect fill="#B0C4DE" height="52.5938" rx="5" ry="5" style="stroke:#FFFFFF;stroke-width:1;" width="219.0146" x="498.49" y="270.8188"/><text fill="#FFFFFF" font-family="Verdana" font-size="14" font-weight="bold" lengthAdjust="spacing" textLength="199.0146" x="508.49" y="293.8139">Legal Architect Authority</text><text fill="#FFFFFF" font-family="Verdana" font-size="14" lengthAdjust="spacing" textLength="165.9219" x="508.49" y="310.1107">Nnamdi Michael Okpala</text></g><!--entity CES--><g class="entity" data-entity="CES" data-source-line="21" data-uid="ent0007" id="entity_CES"><rect fill="#98FB98" height="52.5938" rx="5" ry="5" style="stroke:#FFFFFF;stroke-width:1;" width="300.2939" x="745.85" y="423.4088"/><text fill="#FFFFFF" font-family="Verdana" font-size="14" font-weight="bold" lengthAdjust="spacing" textLength="280.2939" x="755.85" y="446.4039">Constitutional Enforcement Service</text><text fill="#FFFFFF" font-family="Verdana" font-size="14" lengthAdjust="spacing" textLength="172.9629" x="755.85" y="462.7007">(iaas.legal.obinexus.org)</text></g><!--entity RPS--><g class="entity" data-entity="RPS" data-source-line="22" data-uid="ent0008" id="entity_RPS"><rect fill="#98FB98" height="52.5938" rx="5" ry="5" style="stroke:#FFFFFF;stroke-width:1;" width="220.8877" x="195.56" y="423.4088"/><text fill="#FFFFFF" font-family="Verdana" font-size="14" font-weight="bold" lengthAdjust="spacing" textLength="200.8877" x="205.56" y="446.4039">Rights Protection Service</text><text fill="#FFFFFF" font-family="Verdana" font-size="14" lengthAdjust="spacing" textLength="184.8096" x="205.56" y="462.7007">(rights.legal.obinexus.org)</text></g><!--entity CVS--><g class="entity" data-entity="CVS" data-source-line="23" data-uid="ent0009" id="entity_CVS"><rect fill="#98FB98" height="52.5938" rx="5" ry="5" style="stroke:#FFFFFF;stroke-width:1;" width="259.6816" x="451.16" y="423.4088"/><text fill="#FFFFFF" font-family="Verdana" font-size="14" font-weight="bold" lengthAdjust="spacing" textLength="239.6816" x="461.16" y="446.4039">Compliance Validation Service</text><text fill="#FFFFFF" font-family="Verdana" font-size="14" lengthAdjust="spacing" textLength="224.9502" x="461.16" y="462.7007">(compliance.legal.obinexus.org)</text></g><!--entity ATS--><g class="entity" data-entity="ATS" data-source-line="24" data-uid="ent0010" id="entity_ATS"><rect fill="#98FB98" height="52.5938" rx="5" ry="5" style="stroke:#FFFFFF;stroke-width:1;" width="200.3389" x="1080.83" y="423.4088"/><text fill="#FFFFFF" font-family="Verdana" font-size="14" font-weight="bold" lengthAdjust="spacing" textLength="145.7627" x="1090.83" y="446.4039">Audit Trail Service</text><text fill="#FFFFFF" font-family="Verdana" font-size="14" lengthAdjust="spacing" textLength="180.3389" x="1090.83" y="462.7007">(audit.legal.obinexus.org)</text></g><!--entity HRR--><g class="entity" data-entity="HRR" data-source-line="30" data-uid="ent0013" id="entity_HRR"><rect fill="#FFB6C1" height="52.5938" rx="5" ry="5" style="stroke:#FFFFFF;stroke-width:1;" width="198.0146" x="1234.99" y="619.0088"/><text fill="#FFFFFF" font-family="Verdana" font-size="14" font-weight="bold" lengthAdjust="spacing" textLength="172.6553" x="1244.99" y="642.0039">Human Rights Review</text><text fill="#FFFFFF" font-family="Verdana" font-size="14" lengthAdjust="spacing" textLength="178.0146" x="1244.99" y="658.3007">Manual Case Assessment</text></g><!--entity CAM--><g class="entity" data-entity="CAM" data-source-line="31" data-uid="ent0014" id="entity_CAM"><rect fill="#FFB6C1" height="52.5938" rx="5" ry="5" style="stroke:#FFFFFF;stroke-width:1;" width="232.1875" x="778.91" y="619.0088"/><text fill="#FFFFFF" font-family="Verdana" font-size="14" font-weight="bold" lengthAdjust="spacing" textLength="212.1875" x="788.91" y="642.0039">Constitutional Amendment</text><text fill="#FFFFFF" font-family="Verdana" font-size="14" lengthAdjust="spacing" textLength="170.1807" x="788.91" y="658.3007">Community Governance</text></g><!--entity LAR--><g class="entity" data-entity="LAR" data-source-line="32" data-uid="ent0015" id="entity_LAR"><rect fill="#FFB6C1" height="52.5938" rx="5" ry="5" style="stroke:#FFFFFF;stroke-width:1;" width="154.2373" x="1045.88" y="619.0088"/><text fill="#FFFFFF" font-family="Verdana" font-size="14" font-weight="bold" lengthAdjust="spacing" textLength="134.2373" x="1055.88" y="642.0039">Legal Arbitration</text><text fill="#FFFFFF" font-family="Verdana" font-size="14" lengthAdjust="spacing" textLength="132.0566" x="1055.88" y="658.3007">Dispute Resolution</text></g><!--entity AEN--><g class="entity" data-entity="AEN" data-source-line="36" data-uid="ent0017" id="entity_AEN"><rect fill="#DDA0DD" height="52.5938" rx="5" ry="5" style="stroke:#FFFFFF;stroke-width:1;" width="212.9102" x="510.54" y="619.0088"/><text fill="#FFFFFF" font-family="Verdana" font-size="14" font-weight="bold" lengthAdjust="spacing" textLength="192.9102" x="520.54" y="642.0039">Automated Enforcement</text><text fill="#FFFFFF" font-family="Verdana" font-size="14" lengthAdjust="spacing" textLength="180.6055" x="520.54" y="658.3007">Smart Contract Execution</text></g><!--entity VDE--><g class="entity" data-entity="VDE" data-source-line="37" data-uid="ent0018" id="entity_VDE"><rect fill="#DDA0DD" height="52.5938" rx="5" ry="5" style="stroke:#FFFFFF;stroke-width:1;" width="172.127" x="50.94" y="619.0088"/><text fill="#FFFFFF" font-family="Verdana" font-size="14" font-weight="bold" lengthAdjust="spacing" textLength="152.127" x="60.94" y="642.0039">Violation Detection</text><text fill="#FFFFFF" font-family="Verdana" font-size="14" lengthAdjust="spacing" textLength="114.0439" x="60.94" y="658.3007">ETPS Monitoring</text></g><!--entity PCA--><g class="entity" data-entity="PCA" data-source-line="38" data-uid="ent0019" id="entity_PCA"><rect fill="#DDA0DD" height="52.5938" rx="5" ry="5" style="stroke:#FFFFFF;stroke-width:1;" width="217.8936" x="258.05" y="619.0088"/><text fill="#FFFFFF" font-family="Verdana" font-size="14" font-weight="bold" lengthAdjust="spacing" textLength="152.7695" x="268.05" y="642.0039">Penalty Calculation</text><text fill="#FFFFFF" font-family="Verdana" font-size="14" lengthAdjust="spacing" textLength="197.8936" x="268.05" y="658.3007">Universal Pension Allocation</text></g><!--entity PLI--><g class="entity" data-entity="PLI" data-source-line="44" data-uid="ent0021" id="entity_PLI"><rect fill="#87CEEB" height="52.5938" rx="5" ry="5" style="stroke:#FFFFFF;stroke-width:1;" width="222.3916" x="1446.8" y="118.2188"/><text fill="#FFFFFF" font-family="Verdana" font-size="14" font-weight="bold" lengthAdjust="spacing" textLength="172.1768" x="1456.8" y="141.2139">Public Legal Interface</text><text fill="#FFFFFF" font-family="Verdana" font-size="14" lengthAdjust="spacing" textLength="202.3916" x="1456.8" y="157.5107">Open Access Documentation</text></g><!--entity PLC--><g class="entity" data-entity="PLC" data-source-line="45" data-uid="ent0022" id="entity_PLC"><rect fill="#87CEEB" height="52.5938" rx="5" ry="5" style="stroke:#FFFFFF;stroke-width:1;" width="191.6094" x="1948.2" y="118.2188"/><text fill="#FFFFFF" font-family="Verdana" font-size="14" font-weight="bold" lengthAdjust="spacing" textLength="171.6094" x="1958.2" y="141.2139">Private Legal Counsel</text><text fill="#FFFFFF" font-family="Verdana" font-size="14" lengthAdjust="spacing" textLength="149.2422" x="1958.2" y="157.5107">Confidential Advisory</text></g><!--entity PLA--><g class="entity" data-entity="PLA" data-source-line="46" data-uid="ent0023" id="entity_PLA"><rect fill="#87CEEB" height="52.5938" rx="5" ry="5" style="stroke:#FFFFFF;stroke-width:1;" width="209.335" x="1704.33" y="118.2188"/><text fill="#FFFFFF" font-family="Verdana" font-size="14" font-weight="bold" lengthAdjust="spacing" textLength="189.335" x="1714.33" y="141.2139">Protected Legal Archive</text><text fill="#FFFFFF" font-family="Verdana" font-size="14" lengthAdjust="spacing" textLength="172.04" x="1714.33" y="157.5107">Truth Project Integration</text></g><!--entity CLD--><g class="entity" data-entity="CLD" data-source-line="51" data-uid="ent0025" id="entity_CLD"><rect fill="#F0E68C" height="52.5938" rx="5" ry="5" style="stroke:#FFFFFF;stroke-width:1;" width="235.7764" x="1421.11" y="270.8188"/><text fill="#FFFFFF" font-family="Verdana" font-size="14" font-weight="bold" lengthAdjust="spacing" textLength="215.7764" x="1431.11" y="293.8139">Constitutional Law Division</text><text fill="#FFFFFF" font-family="Verdana" font-size="14" lengthAdjust="spacing" textLength="177.2148" x="1431.11" y="310.1107">Framework Development</text></g><!--entity DRD--><g class="entity" data-entity="DRD" data-source-line="52" data-uid="ent0026" id="entity_DRD"><rect fill="#F0E68C" height="52.5938" rx="5" ry="5" style="stroke:#FFFFFF;stroke-width:1;" width="217.8389" x="1935.08" y="270.8188"/><text fill="#FFFFFF" font-family="Verdana" font-size="14" font-weight="bold" lengthAdjust="spacing" textLength="197.8389" x="1945.08" y="293.8139">Disability Rights Division</text><text fill="#FFFFFF" font-family="Verdana" font-size="14" lengthAdjust="spacing" textLength="190.5381" x="1945.08" y="310.1107">Dark Psychology Mitigation</text></g><!--entity CCD--><g class="entity" data-entity="CCD" data-source-line="53" data-uid="ent0027" id="entity_CCD"><rect fill="#F0E68C" height="52.5938" rx="5" ry="5" style="stroke:#FFFFFF;stroke-width:1;" width="208.2139" x="1691.89" y="270.8188"/><text fill="#FFFFFF" font-family="Verdana" font-size="14" font-weight="bold" lengthAdjust="spacing" textLength="173.3936" x="1701.89" y="293.8139">Civil Collapse Division</text><text fill="#FFFFFF" font-family="Verdana" font-size="14" lengthAdjust="spacing" textLength="188.2139" x="1701.89" y="310.1107">Systemic Failure Response</text></g><!--entity ICD--><g class="entity" data-entity="ICD" data-source-line="54" data-uid="ent0028" id="entity_ICD"><rect fill="#F0E68C" height="52.5938" rx="5" ry="5" style="stroke:#FFFFFF;stroke-width:1;" width="287.1211" x="2187.44" y="270.8188"/><text fill="#FFFFFF" font-family="Verdana" font-size="14" font-weight="bold" lengthAdjust="spacing" textLength="267.1211" x="2197.44" y="293.8139">International Compliance Division</text><text fill="#FFFFFF" font-family="Verdana" font-size="14" lengthAdjust="spacing" textLength="201.9336" x="2197.44" y="310.1107">Global Standards Integration</text></g><!--entity LAH--><g class="entity" data-entity="LAH" data-source-line="59" data-uid="ent0030" id="entity_LAH"><rect fill="#FFA07A" height="52.5938" rx="5" ry="5" style="stroke:#FFFFFF;stroke-width:1;" width="224.333" x="947.83" y="118.2188"/><text fill="#FFFFFF" font-family="Verdana" font-size="14" font-weight="bold" lengthAdjust="spacing" textLength="138.9541" x="957.83" y="141.2139">Legal-Axis Hybrid</text><text fill="#FFFFFF" font-family="Verdana" font-size="14" lengthAdjust="spacing" textLength="204.333" x="957.83" y="157.5107">Research &amp; Legal Integration</text></g><!--entity LRH--><g class="entity" data-entity="LRH" data-source-line="60" data-uid="ent0031" id="entity_LRH"><rect fill="#FFA07A" height="52.5938" rx="5" ry="5" style="stroke:#FFFFFF;stroke-width:1;" width="183.4336" x="1207.28" y="118.2188"/><text fill="#FFFFFF" font-family="Verdana" font-size="14" font-weight="bold" lengthAdjust="spacing" textLength="163.4336" x="1217.28" y="141.2139">Legal-Reform Hybrid</text><text fill="#FFFFFF" font-family="Verdana" font-size="14" lengthAdjust="spacing" textLength="156.3857" x="1217.28" y="157.5107">Policy Implementation</text></g><!--entity HRS--><g class="entity" data-entity="HRS" data-source-line="65" data-uid="ent0033" id="entity_HRS"><rect fill="#AFEEEE" height="52.5938" rx="5" ry="5" style="stroke:#FFFFFF;stroke-width:1;" width="242.8242" x="1759.59" y="423.4088"/><text fill="#FFFFFF" font-family="Verdana" font-size="14" font-weight="bold" lengthAdjust="spacing" textLength="167.1182" x="1769.59" y="446.4039">Human Rights Sector</text><text fill="#FFFFFF" font-family="Verdana" font-size="14" lengthAdjust="spacing" textLength="222.8242" x="1769.59" y="462.7007">Health + Social Care + Housing</text></g><!--entity TRS--><g class="entity" data-entity="TRS" data-source-line="66" data-uid="ent0034" id="entity_TRS"><rect fill="#AFEEEE" height="52.5938" rx="5" ry="5" style="stroke:#FFFFFF;stroke-width:1;" width="221.8926" x="2037.05" y="423.4088"/><text fill="#FFFFFF" font-family="Verdana" font-size="14" font-weight="bold" lengthAdjust="spacing" textLength="201.8926" x="2047.05" y="446.4039">Technology Rights Sector</text><text fill="#FFFFFF" font-family="Verdana" font-size="14" lengthAdjust="spacing" textLength="181.6445" x="2047.05" y="462.7007">Computing + IP + Privacy</text></g><g class="entity" data-entity="GMN58" data-source-line="101" data-uid="ent0059" id="entity_GMN58"><path d="M1845.47,607.4688 L1845.47,683.1328 A5,5 0 0 0 1850.47,688.1328 L2133.5369,688.1328 A5,5 0 0 0 2138.5369,683.1328 L2138.5369,612.4688 L2128.5369,602.4688 L1850.47,602.4688 A5,5 0 0 0 1845.47,607.4688" fill="#0B58A8" style="stroke:#FFFFFF;stroke-width:1;"/><path d="M2128.5369,602.4688 L2128.5369,609.9688 A2.5,2.5 0 0 0 2131.0369,612.4688 L2138.5369,612.4688 L2128.5369,602.4688" fill="#0B58A8" style="stroke:#FFFFFF;stroke-width:1;"/><text fill="#FFFFFF" font-family="Verdana" font-size="13" font-weight="bold" lengthAdjust="spacing" textLength="231.7466" x="1851.47" y="619.5356">Value-Added Services Example:</text><text fill="#FFFFFF" font-family="Verdana" font-size="13" lengthAdjust="spacing" textLength="257.8672" x="1851.47" y="634.6685">- Extra 15-mile legal consultation travel</text><text fill="#FFFFFF" font-family="Verdana" font-size="13" lengthAdjust="spacing" textLength="214.2969" x="1851.47" y="649.8013">- Premium arbitration scheduling</text><text fill="#FFFFFF" font-family="Verdana" font-size="13" lengthAdjust="spacing" textLength="218.3911" x="1851.47" y="664.9341">- Expedited document processing</text><text fill="#FFFFFF" font-family="Verdana" font-size="13" lengthAdjust="spacing" textLength="272.0669" x="1851.47" y="680.0669">- Enhanced accessibility accommodations</text></g><g class="entity" data-entity="GMN61" data-source-line="110" data-uid="ent0062" id="entity_GMN61"><path d="M1489.14,607.4688 L1489.14,683.1328 A5,5 0 0 0 1494.14,688.1328 L1805.8666,688.1328 A5,5 0 0 0 1810.8666,683.1328 L1810.8666,612.4688 L1800.8666,602.4688 L1494.14,602.4688 A5,5 0 0 0 1489.14,607.4688" fill="#0B58A8" style="stroke:#FFFFFF;stroke-width:1;"/><path d="M1800.8666,602.4688 L1800.8666,609.9688 A2.5,2.5 0 0 0 1803.3666,612.4688 L1810.8666,612.4688 L1800.8666,602.4688" fill="#0B58A8" style="stroke:#FFFFFF;stroke-width:1;"/><text fill="#FFFFFF" font-family="Verdana" font-size="13" font-weight="bold" lengthAdjust="spacing" textLength="208.6538" x="1495.14" y="619.5356">Zero-Trust Rotation System:</text><text fill="#FFFFFF" font-family="Verdana" font-size="13" lengthAdjust="spacing" textLength="268.2773" x="1495.14" y="634.6685">- HITL: Human validates critical decisions</text><text fill="#FFFFFF" font-family="Verdana" font-size="13" lengthAdjust="spacing" textLength="300.7266" x="1495.14" y="649.8013">- HOTL: Automated enforcement for violations</text><text fill="#FFFFFF" font-family="Verdana" font-size="13" lengthAdjust="spacing" textLength="268.3853" x="1495.14" y="664.9341">- Fault-tolerant: P2P, Star, Bus topologies</text><text fill="#FFFFFF" font-family="Verdana" font-size="13" lengthAdjust="spacing" textLength="255.0996" x="1495.14" y="680.0669">- Constitutional compliance verification</text></g><!--link ROOT to CCE--><g class="link" data-entity-1="ROOT" data-entity-2="CCE" data-source-line="70" data-uid="lnk35" id="link_ROOT_CCE"><path d="M765.63,171.0688 C794.5,198.7587 835.9899,238.5454 864.9099,266.2854" fill="none" id="ROOT-to-CCE" style="stroke:#FFFFFF;stroke-width:2;"/><polygon fill="#FFFFFF" points="869.24,270.4387,865.5138,261.322,865.6316,266.9776,859.976,267.0954,869.24,270.4387" style="stroke:#FFFFFF;stroke-width:2;"/></g><!--link ROOT to LAA--><g class="link" data-entity-1="ROOT" data-entity-2="LAA" data-source-line="71" data-uid="lnk36" id="link_ROOT_LAA"><path d="M716.78,171.0688 C692.69,198.7587 658.3978,238.1718 634.2678,265.9118" fill="none" id="ROOT-to-LAA" style="stroke:#FFFFFF;stroke-width:2;"/><polygon fill="#FFFFFF" points="630.33,270.4387,639.2547,266.2735,633.6115,266.6663,633.2188,261.0231,630.33,270.4387" style="stroke:#FFFFFF;stroke-width:2;"/></g><!--link CCE to CES--><g class="link" data-entity-1="CCE" data-entity-2="CES" data-source-line="73" data-uid="lnk37" id="link_CCE_CES"><path d="M896,323.6588 C896,351.3488 896,389.2988 896,417.0388" fill="none" id="CCE-to-CES" style="stroke:#FFFFFF;stroke-width:2;"/><polygon fill="#FFFFFF" points="896,423.0388,900,414.0388,896,418.0388,892,414.0388,896,423.0388" style="stroke:#FFFFFF;stroke-width:2;"/></g><!--link CCE to RPS--><g class="link" data-entity-1="CCE" data-entity-2="RPS" data-source-line="74" data-uid="lnk38" id="link_CCE_RPS"><path d="M822.21,323.8988 C795.08,332.5288 763.92,341.4588 735,347.4088 C603.19,374.5688 562.58,340.6788 434,380.4088 C402.23,390.2288 374.3214,404.9529 349.7614,419.9429" fill="none" id="CCE-to-RPS" style="stroke:#FFFFFF;stroke-width:2;"/><polygon fill="#FFFFFF" points="344.64,423.0688,354.4061,421.7943,348.9079,420.4639,350.2383,414.9657,344.64,423.0688" style="stroke:#FFFFFF;stroke-width:2;"/></g><!--link CCE to CVS--><g class="link" data-entity-1="CCE" data-entity-2="CVS" data-source-line="75" data-uid="lnk39" id="link_CCE_CVS"><path d="M842.21,323.8288 C784.31,351.5088 698.1632,392.6908 640.2432,420.3808" fill="none" id="CCE-to-CVS" style="stroke:#FFFFFF;stroke-width:2;"/><polygon fill="#FFFFFF" points="634.83,422.9688,644.6751,422.6957,639.341,420.8122,641.2245,415.4781,634.83,422.9688" style="stroke:#FFFFFF;stroke-width:2;"/></g><!--link CCE to ATS--><g class="link" data-entity-1="CCE" data-entity-2="ATS" data-source-line="76" data-uid="lnk40" id="link_CCE_ATS"><path d="M950.99,323.8088 C984.04,339.5588 1026.79,360.4688 1064,380.4088 C1089.08,393.8488 1111.4354,406.778 1133.4754,419.908" fill="none" id="CCE-to-ATS" style="stroke:#FFFFFF;stroke-width:2;"/><polygon fill="#FFFFFF" points="1138.63,422.9788,1132.9452,414.9361,1134.3345,420.4198,1128.8509,421.809,1138.63,422.9788" style="stroke:#FFFFFF;stroke-width:2;"/></g><!--link CES to HRR--><g class="link" data-entity-1="CES" data-entity-2="HRR" data-source-line="78" data-uid="lnk41" id="link_CES_HRR"><path d="M978.47,476.4288 C1005.31,484.4288 1035.31,492.9788 1063,500.0087 C1131.27,517.3188 1155.76,500.0288 1218,533.0088 C1257.95,554.1688 1290.0045,588.4637 1310.9445,614.2137" fill="none" id="CES-to-HRR" style="stroke:#FFFFFF;stroke-width:2;"/><polygon fill="#FFFFFF" points="1314.73,618.8688,1312.1551,609.3624,1311.5754,614.9895,1305.9483,614.4098,1314.73,618.8688" style="stroke:#FFFFFF;stroke-width:2;"/><text fill="#FFFFFF" font-family="Verdana" font-size="13" lengthAdjust="spacing" textLength="28.793" x="1201" y="521.0756">HITL</text></g><!--link CES to AEN--><g class="link" data-entity-1="CES" data-entity-2="AEN" data-source-line="79" data-uid="lnk42" id="link_CES_AEN"><path d="M852.19,476.3488 C825.92,492.0888 792.08,512.9988 763,533.0088 C722.57,560.8288 682.6349,591.7128 653.5049,614.8928" fill="none" id="CES-to-AEN" style="stroke:#FFFFFF;stroke-width:2;"/><polygon fill="#FFFFFF" points="648.81,618.6288,658.3431,616.1548,652.7225,615.5154,653.3618,609.8948,648.81,618.6288" style="stroke:#FFFFFF;stroke-width:2;"/><text fill="#FFFFFF" font-family="Verdana" font-size="13" lengthAdjust="spacing" textLength="35.1914" x="799" y="521.0756">HOTL</text></g><!--link RPS to CAM--><g class="link" data-entity-1="RPS" data-entity-2="CAM" data-source-line="80" data-uid="lnk43" id="link_RPS_CAM"><path d="M363.63,476.4688 C385.3,485.1988 410.41,494.2088 434,500.0087 C457.57,505.7988 626.86,522.5188 651,525.0088 C690.07,529.0288 702.18,519.3488 739,533.0088 C790,551.9188 835.0576,588.0248 864.1576,614.5748" fill="none" id="RPS-to-CAM" style="stroke:#FFFFFF;stroke-width:2;"/><polygon fill="#FFFFFF" points="868.59,618.6188,864.6374,609.5978,864.8963,615.2488,859.2454,615.5077,868.59,618.6188" style="stroke:#FFFFFF;stroke-width:2;"/><text fill="#FFFFFF" font-family="Verdana" font-size="13" lengthAdjust="spacing" textLength="28.793" x="652" y="521.0756">HITL</text></g><!--link RPS to VDE--><g class="link" data-entity-1="RPS" data-entity-2="VDE" data-source-line="81" data-uid="lnk44" id="link_RPS_VDE"><path d="M283.56,476.4188 C251.14,513.5487 195.5253,577.2583 163.2153,614.2783" fill="none" id="RPS-to-VDE" style="stroke:#FFFFFF;stroke-width:2;"/><polygon fill="#FFFFFF" points="159.27,618.7988,168.2016,614.6483,162.5578,615.0317,162.1743,609.3879,159.27,618.7988" style="stroke:#FFFFFF;stroke-width:2;"/><text fill="#FFFFFF" font-family="Verdana" font-size="13" lengthAdjust="spacing" textLength="35.1914" x="253" y="521.0756">HOTL</text></g><!--link CVS to LAR--><g class="link" data-entity-1="CVS" data-entity-2="LAR" data-source-line="82" data-uid="lnk45" id="link_CVS_LAR"><path d="M623.16,476.4088 C654.02,493.7288 697.57,515.1488 739,525.0088 C770.36,532.4688 999.95,519.0288 1029,533.0088 C1066.6,551.0988 1091.8117,586.8944 1107.1017,613.7544" fill="none" id="CVS-to-LAR" style="stroke:#FFFFFF;stroke-width:2;"/><polygon fill="#FFFFFF" points="1110.07,618.9688,1109.0938,609.1684,1107.5965,614.6235,1102.1414,613.1261,1110.07,618.9688" style="stroke:#FFFFFF;stroke-width:2;"/><text fill="#FFFFFF" font-family="Verdana" font-size="13" lengthAdjust="spacing" textLength="28.793" x="740" y="521.0756">HITL</text></g><!--link CVS to PCA--><g class="link" data-entity-1="CVS" data-entity-2="PCA" data-source-line="83" data-uid="lnk46" id="link_CVS_PCA"><path d="M490.94,476.4188 C472.69,484.4888 454.64,494.8388 440,508.0087 C406.17,538.4288 387.0846,582.6426 376.7246,612.8826" fill="none" id="CVS-to-PCA" style="stroke:#FFFFFF;stroke-width:2;"/><polygon fill="#FFFFFF" points="374.78,618.5588,381.481,611.3409,376.4005,613.8286,373.9128,608.7481,374.78,618.5588" style="stroke:#FFFFFF;stroke-width:2;"/><text fill="#FFFFFF" font-family="Verdana" font-size="13" lengthAdjust="spacing" textLength="35.1914" x="441" y="521.0756">HOTL</text></g><!--link PLI to CLD--><g class="link" data-entity-1="PLI" data-entity-2="CLD" data-source-line="85" data-uid="lnk47" id="link_PLI_CLD"><path d="M1554.78,171.0688 C1551.28,198.7587 1546.4911,236.7459 1542.9911,264.4859" fill="none" id="PLI-to-CLD" style="stroke:#FFFFFF;stroke-width:2;"/><polygon fill="#FFFFFF" points="1542.24,270.4387,1547.3351,262.0103,1542.8659,265.4781,1539.3981,261.0088,1542.24,270.4387" style="stroke:#FFFFFF;stroke-width:2;"/></g><!--link PLC to DRD--><g class="link" data-entity-1="PLC" data-entity-2="DRD" data-source-line="86" data-uid="lnk48" id="link_PLC_DRD"><path d="M2044,171.0688 C2044,198.7587 2044,236.6988 2044,264.4387" fill="none" id="PLC-to-DRD" style="stroke:#FFFFFF;stroke-width:2;"/><polygon fill="#FFFFFF" points="2044,270.4387,2048,261.4387,2044,265.4387,2040,261.4387,2044,270.4387" style="stroke:#FFFFFF;stroke-width:2;"/></g><!--link PLA to CCD--><g class="link" data-entity-1="PLA" data-entity-2="CCD" data-source-line="87" data-uid="lnk49" id="link_PLA_CCD"><path d="M1806.79,171.0688 C1804.4,198.7587 1801.125,236.7209 1798.735,264.4609" fill="none" id="PLA-to-CCD" style="stroke:#FFFFFF;stroke-width:2;"/><polygon fill="#FFFFFF" points="1798.22,270.4387,1802.9778,261.8153,1798.6492,265.4572,1795.0073,261.1286,1798.22,270.4387" style="stroke:#FFFFFF;stroke-width:2;"/></g><!--link CLD to HRS--><g class="link" data-entity-1="CLD" data-entity-2="HRS" data-source-line="89" data-uid="lnk50" id="link_CLD_HRS"><path d="M1597.4,323.8288 C1660.27,351.5088 1754.1788,392.8607 1817.0588,420.5507" fill="none" id="CLD-to-HRS" style="stroke:#FFFFFF;stroke-width:2;"/><polygon fill="#FFFFFF" points="1822.55,422.9688,1815.9253,415.6808,1817.974,420.9537,1812.7012,423.0024,1822.55,422.9688" style="stroke:#FFFFFF;stroke-width:2;"/></g><!--link DRD to HRS--><g class="link" data-entity-1="DRD" data-entity-2="HRS" data-source-line="90" data-uid="lnk51" id="link_DRD_HRS"><path d="M2016.35,323.6588 C1986.38,351.3488 1943.2167,391.2268 1913.1967,418.9668" fill="none" id="DRD-to-HRS" style="stroke:#FFFFFF;stroke-width:2;"/><polygon fill="#FFFFFF" points="1908.79,423.0388,1918.1147,419.8685,1912.4622,419.6454,1912.6854,413.993,1908.79,423.0388" style="stroke:#FFFFFF;stroke-width:2;"/></g><!--link CCD to HRS--><g class="link" data-entity-1="CCD" data-entity-2="HRS" data-source-line="91" data-uid="lnk52" id="link_CCD_HRS"><path d="M1810.42,323.6588 C1826.05,351.3488 1847.9004,390.0738 1863.5604,417.8138" fill="none" id="CCD-to-HRS" style="stroke:#FFFFFF;stroke-width:2;"/><polygon fill="#FFFFFF" points="1866.51,423.0388,1865.5689,413.235,1864.052,418.6847,1858.6023,417.1678,1866.51,423.0388" style="stroke:#FFFFFF;stroke-width:2;"/></g><!--link ICD to TRS--><g class="link" data-entity-1="ICD" data-entity-2="TRS" data-source-line="92" data-uid="lnk53" id="link_ICD_TRS"><path d="M2299.96,323.6588 C2266.31,351.3488 2217.543,391.4862 2183.833,419.2262" fill="none" id="ICD-to-TRS" style="stroke:#FFFFFF;stroke-width:2;"/><polygon fill="#FFFFFF" points="2179.2,423.0388,2188.6912,420.4087,2183.0608,419.8617,2183.6078,414.2313,2179.2,423.0388" style="stroke:#FFFFFF;stroke-width:2;"/></g><!--link LAH to CLD--><g class="link" data-entity-1="LAH" data-entity-2="CLD" data-source-line="94" data-uid="lnk54" id="link_LAH_CLD"><path d="M1124.77,171.2487 C1145.48,179.1587 1168.59,187.6688 1190,194.8188 C1274.52,223.0587 1366.2344,249.3892 1436.6644,268.7392" fill="none" id="LAH-to-CLD" style="stroke:#FFFFFF;stroke-width:2;"/><polygon fill="#FFFFFF" points="1442.45,270.3288,1434.8313,264.0874,1437.6287,269.0041,1432.7119,271.8015,1442.45,270.3288" style="stroke:#FFFFFF;stroke-width:2;"/><text fill="#FFFFFF" font-family="Verdana" font-size="13" lengthAdjust="spacing" textLength="41.3931" x="1266" y="215.8856">hybrid</text></g><!--link LAH to CCE--><g class="link" data-entity-1="LAH" data-entity-2="CCE" data-source-line="95" data-uid="lnk55" id="link_LAH_CCE"><path d="M1032.18,171.0688 C1002.02,198.7587 958.5895,238.6406 928.3795,266.3806" fill="none" id="LAH-to-CCE" style="stroke:#FFFFFF;stroke-width:2;"/><polygon fill="#FFFFFF" points="923.96,270.4387,933.2946,267.2979,927.6429,267.057,927.8838,261.4053,923.96,270.4387" style="stroke:#FFFFFF;stroke-width:2;"/><text fill="#FFFFFF" font-family="Verdana" font-size="13" lengthAdjust="spacing" textLength="41.3931" x="998" y="215.8856">hybrid</text></g><!--link LRH to CCD--><g class="link" data-entity-1="LRH" data-entity-2="CCD" data-source-line="96" data-uid="lnk56" id="link_LRH_CCD"><path d="M1359.22,171.2288 C1381.44,179.8488 1407.04,188.7988 1431,194.8188 C1536.7,221.3787 1570.63,193.2587 1674,227.8188 C1704.16,237.8988 1730.3377,252.3281 1753.6477,267.1581" fill="none" id="LRH-to-CCD" style="stroke:#FFFFFF;stroke-width:2;"/><polygon fill="#FFFFFF" points="1758.71,270.3787,1753.2636,262.1728,1754.4914,267.6948,1748.9694,268.9226,1758.71,270.3787" style="stroke:#FFFFFF;stroke-width:2;"/><text fill="#FFFFFF" font-family="Verdana" font-size="13" lengthAdjust="spacing" textLength="41.3931" x="1645" y="215.8856">hybrid</text></g><!--link LRH to HRR--><g class="link" data-entity-1="LRH" data-entity-2="HRR" data-source-line="97" data-uid="lnk57" id="link_LRH_HRR"><path d="M1305.85,171.2988 C1308.19,181.0988 1310.57,192.4087 1312,202.8188 C1333.56,359.8188 1334.6835,544.7888 1334.3035,612.7788" fill="none" id="LRH-to-HRR" style="stroke:#FFFFFF;stroke-width:2;"/><polygon fill="#FFFFFF" points="1334.27,618.7788,1338.3202,609.8012,1334.2979,613.7788,1330.3204,609.7565,1334.27,618.7788" style="stroke:#FFFFFF;stroke-width:2;"/><text fill="#FFFFFF" font-family="Verdana" font-size="13" lengthAdjust="spacing" textLength="41.3931" x="1328" y="368.4756">hybrid</text></g><!--link HRR to GMN58--><g class="link" data-entity-1="HRR" data-entity-2="GMN58" data-source-line="101" data-uid="lnk60" id="link_HRR_GMN58"><path d="M1355.63,618.5788 C1382.97,587.1687 1433.27,536.7688 1489.5,516.5088 C1523.05,504.4088 1776.52,505.6688 1810.5,516.5088 C1863.14,533.2887 1913.61,571.5088 1947.9,601.9788" fill="none" id="HRR-GMN58" style="stroke:#FFFFFF;stroke-width:2;stroke-dasharray:7,7;"/></g><!--link GMN61 to AEN--><g class="link" data-entity-1="GMN61" data-entity-2="AEN" data-source-line="110" data-uid="lnk63" id="link_GMN61_AEN"><path d="M1595.82,602.1788 C1553.73,571.5888 1492.46,533.1388 1431.5,516.5088 C1361.72,497.4688 848.85,492.8188 780.5,516.5088 C722.29,536.6788 669.09,587.1088 640.05,618.5488" fill="none" id="GMN61-AEN" style="stroke:#FFFFFF;stroke-width:2;stroke-dasharray:7,7;"/></g><g class="legend" data-source-line="118"><rect fill="none" height="124.0781" rx="5" ry="5" style="stroke:#FFFFFF;stroke-width:1;" width="335.9238" x="1076.5381" y="722.5988"/><text fill="#FFFFFF" font-family="Verdana" font-size="14" font-weight="bold" lengthAdjust="spacing" textLength="130.2725" x="1081.5381" y="740.5939">Schema Legend:</text><ellipse cx="1087.0381" cy="752.6925" fill="#FFFFFF" rx="2.5" ry="2.5"/><text fill="#FFFFFF" font-family="Verdana" font-size="14" lengthAdjust="spacing" textLength="247.1602" x="1093.5381" y="756.8907">= Services (Projects/Infrastructure)</text><rect fill="#FFFFFF" height="3.5" width="3.5" x="1090.5381" y="766.4894"/><text fill="#FFFFFF" font-family="Verdana" font-size="14" lengthAdjust="spacing" textLength="256.1631" x="1097.5381" y="773.1876">= Operations (HITL/HOTL Processes)</text><text fill="#FFFFFF" font-family="Verdana" font-size="14" lengthAdjust="spacing" textLength="260.0664" x="1081.5381" y="789.4845">&lt;-&gt; = Departments (Access Control)</text><text fill="#FFFFFF" font-family="Verdana" font-size="14" lengthAdjust="spacing" textLength="274.791" x="1081.5381" y="805.7814">&lt;--&gt; = Divisions (Organizational Units)</text><text fill="#FFFFFF" font-family="Verdana" font-size="14" lengthAdjust="spacing" textLength="325.9238" x="1081.5381" y="822.0782">Sectors = Multiple Divisions Working Together</text><text fill="#FFFFFF" font-family="Verdana" font-size="14" lengthAdjust="spacing" textLength="237.0908" x="1081.5381" y="838.3751">Hybrid = Cross-functional Entities</text></g><!--SRC=[XLThRzis5FskNy4rm9QwTUSKRVf0Mq2HvDg0anYsbm53lz0IRNEHHOEKd7X5_llE9VMo7QCfaahavU5zddlrMxuIQy7uMYwvbyiy5UpsQdWZ7Wl3HcB9KpRC5fgRN1TnNcZ11b9ehkFLxaVsyqlds-ildSwtfpTVkj_UgBdCw1nUw4qlsJG6EFSySo-p3TTypUOylbzgLMH9e5AbsLa_edyj2RFYYNgGsP8jU6f4QsVYZkbCQ7RHQstuMgk7sKh6zvamXhtrl3yWh79senBXQH7dF5l2i1UTJgrZIhQHaftEZonGcO7jHIvL1ekVi_i5uuPDRczdKBaVVkZrs4_lYIwwvZ9Z1m1zQ2KUbBxtDh2NBt7rAGasuZkXNx2pw3AwxFj0PMnFuuE3WLflKicpMB0eMy8Oql-QnoiyTk-4bWl9vpZvNMs5paZEQXu44JkxwWNlmkZm0cUjZv3A7ElCB_ALqZBV4V9DnjU9PDSoNd6Hijlx3K-vHHpvVere7J4LUYjZOPn5xBppih7-U0yMztlzVh_tIukZRA5qZ2JDykeEqknSSbw7iOeguldIsHjDsTcdZ_shJnyFuITokSeD6sj5vkAEFLHjTq_YJiOdSLkHkUEfJFWHTbnBdDRxxYI-NoGoPpFDPRg7ocdz9A0_Qm1jc6utg5zIhGb6ErBFRbEm4Ah-UnkiMdOmd8rQU5RgwZAui587sW-ADSzOwVk9s4hnu38tAoYhkH7CDmRbIt6scWycamhm6EuWHtoSIkYag-RrkiYGm4T5u5-VHgpAO2vpPmz1XT9iYbn0OQDIUrcP-stLdl2xvvRRGxU4eTyBm-VSWc9JQvwBf9tcTFDqpNLEl09jK9JHeuYR-_tefW8zXhoJAdMv5ueommamcY5rhnNyWkBEbXRdBenEuum5F0id1ZoDYxHsoL-PX5CDV0K1GzVuQQfYNYit3lmMw9FBkb20gdCohiuhj8nMthK5x5P54FrZWXWNyrJ6DKtdGY-uAmPu7Vh4CRM1KCK5uRKq6mtPsSSFGHHT7K5gkKKOIim0dSQ8j6mD2va0Hb9s95jfbDwLQC5fDCijY6gBNBTMmva6lHBv_4jSIyelTLj3lyPqVfEuiLsDr5jRRdFuZPJRT_Ng1-4loNN47-hJf5xJbqAn5QdQrEKOZ4AAI7JvCJZ4H9NmkKofuie2RqE676XZiujNwFZB7Nf9ZbcZDZcSdCGDW4B1I5E-0J-qGQSxauirag0FEgIn11MwWMbLjpk9QTCbuyVTj8t-FLLpx4vnBE4wCKTn6hOki74QxEPQ9djfVjwyT2lmKguLmF9WX0JBfN0S6hsBBeuZPqFTzH-bAL58KvWjQ1fZlxVAeQtfo1yGfD_xu3yFE17WdNKBSgnGN3isX6V4VlsC9WrMsV9Zi0bClIxIN4A-oSIZ72rbQT8vKTPxBSA9apu30HfQiLTigc9fUmN2_OeDL64g7XjCqEJyVeIVGz2PY5UPIxmZP8e-2W6ZvYis7EEFPO7ObVUiXMcDdGX7WcObDyQpeo1gZIQhvWL3aUVHh6LtecdzZBcXMRzhdj6USG332hrGn_lCgAlMIyJqM497yMZqiCVHnKgfQebul9IY0S9fqc2LIqJCfPH7L6Z1Hg57H4RFg4IF2CXP5K8lbBpJQ-fHcLRFL5xLyx1yXhiyZvAjHCLDAvjIpM8GjHOdrM9ulEZyK2x2ynYd2j7ramI4Ma-IVfOfbviU7WIpWnjJ2pgD940VVEvKzCWfhpztEf3fuXNjbLsyxwubqiNEK2n6Y97EheLY6pHePSSQX5Ei6Mz616RmWPCKALAeXDi836EuC2cR3zjeHTsebiXMn3O9uxP9oP8syOQXHRcPqNWOPXWPPPa58VpJZXI75gTYOGr6ZbY3_n5QTT5VJ8wldr9_nvELkOI53B1rjdKpAdmIOzYNCInFHEoArmdVad0pe8ZM78udjgtc32VUvt1QDrSfvfui_yp6RyUlYK7rQtQ5RybSRQWAGN5M-g0DDPCnszfl63TFx3a2D89NBxN_iRdAePYrstrbbllEr0xxsiJylEosvi_zJxgNzZGaMpFlUUFkiOkSC2I7YGI2U_HUZXbsH5Ef4t9IJJU-rKkUoV-gTeFPARTm5N5-PSVCoVv6-oLIcgcbmDUvXdpP9RwoG2jZkeiYY-kl8zSuo5NEDVy3]--></g></svg>